<?xml version="1.0" standalone="no"?>
<!DOCTYPE svg PUBLIC "-//W3C//DTD SVG 20010904//EN"
 "http://www.w3.org/TR/2001/REC-SVG-20010904/DTD/svg10.dtd">
<svg version="1.0" xmlns="http://www.w3.org/2000/svg"
 width="900.000000pt" height="900.000000pt" viewBox="0 0 900.000000 900.000000"
 preserveAspectRatio="xMidYMid meet">
<metadata>
Created by potrace 1.10, written by Peter Selinger 2001-2011
</metadata>
<g transform="translate(0.000000,900.000000) scale(0.100000,-0.100000)"
fill="#ffffff" stroke="none">
<path d="M3430 7498 c-87 -11 -256 -45 -285 -59 -11 -5 -47 -18 -80 -28 -140
-45 -312 -135 -438 -231 -71 -53 -216 -196 -252 -248 -86 -123 -153 -253 -180
-347 -9 -33 -21 -75 -27 -94 -10 -32 -19 -86 -38 -236 -5 -38 -6 -124 -3 -190
4 -84 2 -128 -6 -143 -6 -12 -45 -44 -85 -71 -40 -27 -110 -89 -155 -138 -68
-73 -91 -108 -140 -208 -33 -68 -68 -159 -81 -210 -20 -81 -22 -105 -16 -230
5 -127 21 -218 51 -290 4 -11 16 -40 26 -65 51 -130 187 -314 293 -397 80 -62
155 -113 168 -113 5 0 24 -6 41 -14 96 -44 210 -76 265 -76 25 1 25 2 -12 20
-22 11 -47 27 -56 35 -9 8 -20 15 -23 15 -18 0 -120 80 -190 149 -256 249
-347 711 -221 1116 25 80 84 192 133 251 14 18 51 52 82 77 l56 46 27 112 c28
113 72 246 88 264 4 5 8 16 8 24 0 21 98 211 122 238 12 12 30 38 42 57 71
116 265 283 428 369 193 100 307 136 520 162 340 41 655 5 923 -106 135 -55
181 -77 239 -113 244 -149 429 -336 591 -598 57 -92 172 -259 244 -354 99
-131 302 -311 450 -399 28 -16 51 -33 51 -37 0 -4 10 -10 22 -14 28 -8 152
-84 253 -153 72 -50 104 -73 223 -164 172 -132 417 -386 533 -554 83 -121 169
-254 169 -263 0 -12 42 -93 51 -100 9 -7 74 -147 87 -190 7 -19 21 -64 32 -99
97 -298 126 -644 80 -950 -10 -72 -21 -135 -24 -140 -3 -4 -9 -32 -14 -62 -13
-73 -87 -332 -102 -354 -4 -5 -10 -23 -14 -38 -4 -15 -27 -70 -51 -121 -25
-51 -45 -96 -45 -99 0 -12 -91 -199 -116 -238 -45 -73 -20 -62 58 23 156 172
186 206 199 229 7 13 38 58 69 99 142 187 259 411 359 685 47 128 81 346 81
526 0 277 -60 518 -200 801 -51 102 -149 267 -181 303 -19 21 -37 46 -105 142
-91 128 -429 445 -616 577 -51 37 -104 75 -118 85 -21 16 -170 114 -222 146
-20 12 -54 31 -133 75 -33 18 -83 48 -111 66 -28 19 -55 34 -59 34 -30 0 -486
327 -515 370 -3 4 -33 39 -67 77 -76 83 -273 358 -273 380 0 4 -15 30 -34 58
-51 76 -108 167 -126 200 -32 62 -182 233 -275 315 -53 47 -102 87 -108 89 -7
2 -30 16 -52 31 -134 91 -313 172 -500 225 -33 10 -80 23 -105 30 -128 38
-435 54 -610 33z"/>
<path d="M2310 5431 c0 -29 37 -116 76 -178 34 -54 154 -152 229 -187 190 -90
392 -122 715 -113 204 6 318 17 510 52 97 18 234 43 300 54 25 5 60 14 79 21
18 7 68 13 110 14 71 1 76 0 79 -21 2 -13 -5 -29 -18 -40 -38 -32 -102 -124
-131 -189 -60 -131 -75 -199 -124 -554 -18 -130 -39 -210 -75 -276 -34 -65
-58 -86 -131 -114 -87 -34 -337 -169 -422 -227 -42 -29 -95 -60 -117 -69 -22
-9 -40 -20 -40 -25 0 -5 -66 -76 -147 -157 -155 -156 -183 -188 -247 -287 -21
-33 -51 -78 -65 -100 -14 -22 -29 -42 -32 -45 -3 -3 -39 -72 -81 -155 -69
-138 -185 -448 -204 -545 -3 -19 -10 -39 -14 -45 -14 -18 -22 -82 -11 -89 6
-4 13 9 17 31 3 21 19 66 35 101 16 34 29 64 29 67 0 6 154 317 190 385 57
104 233 371 322 485 85 110 277 298 395 387 100 76 220 158 230 158 3 0 27 13
52 28 25 15 82 43 126 62 156 66 202 159 256 515 28 189 74 348 117 407 9 13
26 40 36 61 47 91 175 203 296 259 140 64 224 82 395 81 177 -1 295 -28 463
-104 251 -113 455 -382 492 -648 5 -31 14 -88 20 -127 19 -111 -6 -303 -57
-437 -26 -71 -106 -185 -159 -231 -17 -14 -89 -60 -160 -102 -164 -98 -211
-147 -218 -232 -2 -20 -4 -42 -5 -49 -2 -26 -39 -34 -98 -23 -62 11 -73 5 -66
-35 8 -37 -28 -65 -82 -65 -38 0 -47 -4 -54 -23 -14 -37 -37 -50 -76 -44 -25
4 -35 2 -35 -7 0 -8 -17 -29 -39 -48 -65 -60 -139 -57 -269 10 -23 13 -84 64
-136 115 -71 70 -101 108 -127 162 -31 65 -34 79 -37 181 -3 80 1 126 12 164
33 109 9 116 -41 11 -24 -49 -27 -71 -31 -182 l-4 -126 42 -89 c24 -48 45
-107 48 -131 6 -52 -19 -137 -60 -206 -15 -26 -28 -50 -28 -52 0 -6 -39 -63
-90 -129 -25 -32 -49 -66 -55 -75 -5 -9 -33 -50 -61 -91 -61 -92 -80 -128
-105 -204 -21 -66 -23 -104 -9 -190 14 -87 47 -151 139 -266 65 -83 83 -82 31
1 -16 27 -32 61 -36 76 -4 16 -10 33 -14 38 -5 6 -14 47 -20 93 -19 129 -3
209 70 357 33 66 76 140 94 165 74 96 186 268 212 324 36 80 56 87 125 43 30
-19 79 -44 109 -57 30 -12 70 -28 88 -36 18 -8 48 -14 67 -14 35 0 65 -21 65
-45 0 -8 -13 -29 -30 -47 -32 -35 -41 -59 -13 -37 9 8 57 53 106 102 98 96
288 253 327 270 14 6 41 23 60 38 36 27 126 80 170 100 14 6 58 27 98 45 39
19 77 34 82 34 6 0 18 4 28 9 29 16 105 40 147 47 22 4 45 9 50 13 29 18 318
61 410 61 76 0 186 -15 213 -30 9 -4 37 -18 62 -30 116 -56 173 -164 173 -329
1 -89 -24 -241 -43 -266 -4 -5 -11 -26 -15 -45 -3 -19 -13 -48 -20 -65 -7 -16
-24 -55 -38 -85 -77 -172 -363 -471 -652 -680 -34 -25 -87 -64 -118 -88 -31
-23 -68 -47 -82 -54 -14 -6 -25 -14 -25 -18 0 -4 -12 -12 -26 -19 -15 -6 -60
-34 -101 -61 -40 -28 -75 -50 -78 -50 -2 0 -39 -21 -82 -46 -152 -90 -694
-364 -721 -364 -3 0 -24 -9 -46 -19 -97 -46 -331 -135 -451 -172 -71 -23 -139
-44 -150 -49 -11 -4 -51 -17 -90 -29 -38 -11 -106 -32 -150 -46 -88 -27 -362
-97 -495 -125 -503 -108 -1018 -107 -1260 2 -79 36 -177 115 -220 180 -22 33
-40 68 -40 77 0 9 -4 21 -9 26 -15 16 -41 160 -41 227 2 172 82 480 177 678
19 41 41 89 48 105 7 17 19 42 26 57 7 16 9 31 6 35 -4 3 -7 1 -7 -5 0 -6 -6
-17 -13 -24 -7 -7 -30 -47 -51 -88 -21 -41 -45 -82 -52 -91 -8 -8 -14 -23 -14
-32 0 -9 -4 -19 -10 -22 -17 -11 -138 -293 -165 -385 -4 -14 -11 -29 -15 -35
-20 -26 -44 -197 -44 -320 -1 -177 19 -256 82 -339 25 -33 58 -72 72 -86 70
-71 272 -173 375 -190 39 -6 97 -17 130 -23 81 -14 625 -14 745 1 52 6 136 16
185 22 93 10 222 34 410 73 39 9 108 23 155 32 47 9 105 21 130 27 25 6 61 13
80 16 19 2 73 15 120 29 47 14 103 29 125 35 21 5 73 20 115 33 41 13 109 33
150 45 91 27 130 40 240 81 47 17 103 38 125 45 22 8 48 19 57 24 10 6 24 10
31 10 13 0 65 22 212 90 33 15 85 38 115 50 30 12 71 30 90 41 19 10 98 51
175 90 196 99 283 146 333 180 24 16 45 29 48 29 2 0 39 24 82 53 42 30 91 62
108 73 68 41 265 198 371 296 94 86 157 155 268 290 14 17 113 158 127 181 18
29 102 215 109 242 5 17 16 55 25 85 26 85 31 314 9 393 -41 146 -121 258
-242 339 -169 113 -258 138 -513 145 -150 4 -190 2 -277 -16 -143 -30 -161
-17 -99 68 79 108 118 214 142 380 16 113 16 128 -1 250 -15 113 -27 174 -64
306 -11 42 -58 143 -106 235 -7 14 -16 32 -20 40 -13 33 -33 59 -100 129 -202
212 -449 318 -790 338 -105 6 -480 -40 -610 -76 -47 -12 -225 -43 -410 -71
-194 -30 -548 -43 -800 -31 -224 11 -309 21 -445 52 -155 35 -204 51 -275 87
-73 36 -209 124 -220 142 -12 19 -25 10 -25 -19z"/>
<path d="M2530 4511 c0 -11 31 -24 39 -16 3 3 -1 10 -9 15 -19 12 -30 12 -30
1z"/>
<path d="M3310 4447 c-54 -52 -70 -59 -182 -88 -55 -13 -62 -33 -25 -67 22
-21 26 -21 73 -9 79 21 139 61 167 112 27 48 44 105 30 105 -4 0 -33 -24 -63
-53z"/>
<path d="M2590 4481 c0 -5 20 -19 44 -31 25 -12 71 -49 103 -84 99 -107 128
-185 148 -401 16 -178 21 -185 116 -185 57 0 84 12 53 24 -9 3 -26 6 -39 6
-39 0 -60 39 -74 141 -7 52 -19 115 -27 141 -8 26 -14 54 -14 62 0 21 -67 162
-94 199 -24 33 -90 82 -154 115 -46 24 -62 27 -62 13z"/>
<path d="M4575 4200 c-3 -5 -17 -10 -31 -10 -43 0 -116 -92 -147 -184 -31 -92
-14 -117 19 -28 27 72 80 147 136 192 28 22 46 40 40 40 -6 0 -14 -4 -17 -10z"/>
<path d="M3213 3777 c18 -15 23 -62 8 -71 -16 -10 -24 -85 -11 -101 14 -17 77
-20 100 -5 12 7 8 11 -17 16 -18 4 -33 7 -34 8 0 0 -6 37 -12 81 -10 67 -15
80 -32 83 -19 3 -19 2 -2 -11z"/>
<path d="M3412 2909 c-7 -13 -21 -37 -32 -54 -31 -46 -86 -164 -104 -220 -53
-170 -44 -372 23 -520 55 -120 175 -270 272 -338 147 -103 254 -166 265 -155
2 3 -14 18 -36 33 -66 46 -233 226 -292 316 -126 190 -176 371 -164 590 6 109
33 230 68 306 21 45 21 82 0 42z"/>
<path d="M4807 2692 c-19 -21 -22 -32 -7 -32 6 0 14 8 17 18 4 9 11 20 17 24
8 6 8 8 0 8 -6 0 -18 -8 -27 -18z"/>
</g>
</svg>
